<svg width="24" height="24" viewBox="0 0 24 24" fill="none" xmlns="http://www.w3.org/2000/svg">
<path d="M17.5199 2.96628C17.6874 2.47585 18.3651 2.461 18.5638 2.92172L18.5806 2.96656L18.8067 3.62793C18.8586 3.7796 18.9423 3.9184 19.0523 4.03496C19.1624 4.15151 19.2961 4.24312 19.4446 4.30359L19.5054 4.32629L20.1667 4.55217C20.6572 4.71975 20.672 5.39738 20.2116 5.59607L20.1667 5.61288L19.5054 5.83904C19.3536 5.89083 19.2148 5.97457 19.0982 6.0846C18.9816 6.19463 18.8899 6.3284 18.8294 6.47687L18.8067 6.5374L18.5808 7.19905C18.4133 7.68948 17.7356 7.70433 17.5372 7.24389L17.5199 7.19905L17.294 6.53768C17.2422 6.38595 17.1584 6.2471 17.0484 6.13049C16.9384 6.01389 16.8046 5.92224 16.6561 5.86174L16.5956 5.83904L15.9342 5.61316C15.4435 5.44558 15.4287 4.76795 15.8894 4.56954L15.9342 4.55217L16.5956 4.32629C16.7473 4.27446 16.8861 4.19071 17.0026 4.08068C17.1192 3.97065 17.2108 3.8369 17.2713 3.68846L17.294 3.62793L17.5199 2.96628ZM20.2923 2C20.3447 2 20.3961 2.01471 20.4406 2.04245C20.4851 2.07019 20.5209 2.10986 20.5439 2.15694L20.5574 2.18972L20.6555 2.47725L20.9433 2.57534C20.9958 2.59319 21.0419 2.62623 21.0756 2.67029C21.1094 2.71434 21.1293 2.76742 21.1328 2.8228C21.1364 2.87817 21.1234 2.93336 21.0955 2.98135C21.0677 3.02934 21.0262 3.06799 20.9764 3.09238L20.9433 3.10584L20.6558 3.20392L20.5577 3.49173C20.5398 3.54425 20.5067 3.59029 20.4627 3.624C20.4186 3.65771 20.3655 3.67758 20.3101 3.6811C20.2547 3.68461 20.1996 3.6716 20.1516 3.64373C20.1036 3.61585 20.065 3.57436 20.0406 3.52452L20.0272 3.49173L19.9291 3.2042L19.6413 3.10612C19.5887 3.08827 19.5427 3.05522 19.5089 3.01117C19.4752 2.96711 19.4553 2.91403 19.4518 2.85866C19.4482 2.80328 19.4612 2.7481 19.4891 2.7001C19.5169 2.65211 19.5584 2.61347 19.6082 2.58907L19.6413 2.57562L19.9288 2.47753L20.0269 2.18972C20.0458 2.13436 20.0815 2.08629 20.1291 2.05226C20.1767 2.01824 20.2338 1.99996 20.2923 2Z" fill="#BE1A21"/>
<path d="M12.1582 5.90601C13.0337 5.90601 13.7974 6.38667 14.1992 7.10132L14.376 7.41479L14.7295 7.35327C14.8186 7.33797 14.9117 7.33082 15.0078 7.33081C15.7341 7.33081 16.3506 7.80663 16.5596 8.46558L16.6484 8.74683L16.9355 8.80933C17.5721 8.94868 18.1115 9.34944 18.4375 9.89331C16.6768 10.3542 14.0779 10.9353 12.1582 10.9353C10.238 10.9352 7.63853 10.3542 5.87793 9.89331C6.20373 9.34931 6.74355 8.94893 7.37988 8.80933L7.66797 8.74683L7.75684 8.46558C7.96561 7.80691 8.58219 7.33097 9.30859 7.33081C9.40429 7.33081 9.49764 7.33796 9.58691 7.35327L9.94043 7.41479L10.1172 7.10132C10.5188 6.3868 11.2825 5.9061 12.1582 5.90601Z" stroke="#BE1A21" stroke-width="1.01887"/>
<path d="M18.6875 10.739C19.8994 10.4512 21.1385 11.2197 21.376 12.4656L22.1328 16.4421C22.4192 17.9468 21.4775 19.4331 19.9473 19.7478C17.9098 20.1668 14.6399 20.7497 12.1592 20.7498C9.67855 20.7498 6.40861 20.1668 4.37109 19.7478C2.8409 19.4331 1.89826 17.9468 2.18457 16.4421L2.94238 12.4656C3.17988 11.2199 4.41811 10.4515 5.62988 10.739C7.41751 11.1636 10.3106 11.7703 12.1592 11.7703C14.0077 11.7702 16.8999 11.1635 18.6875 10.739ZM11.0918 14.3083C10.7019 14.3083 10.3275 14.4634 10.0518 14.739C9.77608 15.0147 9.62117 15.3892 9.62109 15.7791V17.7195L9.63086 17.8201C9.67742 18.048 9.87941 18.2195 10.1211 18.2195C10.3627 18.2194 10.5648 18.048 10.6113 17.8201L10.6211 17.7195V17.2488H11.5615V17.7195C11.5616 17.9955 11.7855 18.2193 12.0615 18.2195C12.3376 18.2194 12.5615 17.9956 12.5615 17.7195V15.7791C12.5614 15.3892 12.4065 15.0147 12.1309 14.739C11.8895 14.4978 11.573 14.3485 11.2363 14.3152L11.0918 14.3083ZM13.5176 14.3083C13.2415 14.3083 13.0177 14.5323 13.0176 14.8083V17.7195C13.0176 17.9956 13.2415 18.2195 13.5176 18.2195C13.7935 18.2193 14.0175 17.9955 14.0176 17.7195V14.8083C14.0174 14.5325 13.7935 14.3085 13.5176 14.3083ZM11.1836 15.3171C11.2739 15.3352 11.3577 15.38 11.4238 15.446C11.512 15.5342 11.5614 15.6544 11.5615 15.7791V16.2488H10.6211V15.7791C10.6212 15.6544 10.6706 15.5342 10.7588 15.446C10.847 15.358 10.9671 15.3083 11.0918 15.3083L11.1836 15.3171Z" fill="#BE1A21"/>
</svg>
