<svg width="24" height="24" viewBox="0 0 24 24" fill="none" xmlns="http://www.w3.org/2000/svg">
<path d="M17.5199 2.96628C17.6874 2.47585 18.3651 2.461 18.5638 2.92172L18.5806 2.96656L18.8067 3.62793C18.8586 3.7796 18.9423 3.9184 19.0523 4.03496C19.1624 4.15151 19.2961 4.24312 19.4446 4.30359L19.5054 4.32629L20.1667 4.55217C20.6572 4.71975 20.672 5.39738 20.2116 5.59607L20.1667 5.61288L19.5054 5.83904C19.3536 5.89083 19.2148 5.97457 19.0982 6.0846C18.9816 6.19463 18.8899 6.3284 18.8294 6.47687L18.8067 6.5374L18.5808 7.19905C18.4133 7.68948 17.7356 7.70433 17.5372 7.24389L17.5199 7.19905L17.294 6.53768C17.2422 6.38595 17.1584 6.2471 17.0484 6.13049C16.9384 6.01389 16.8046 5.92224 16.6561 5.86174L16.5956 5.83904L15.9342 5.61316C15.4435 5.44558 15.4287 4.76795 15.8894 4.56954L15.9342 4.55217L16.5956 4.32629C16.7473 4.27446 16.8861 4.19071 17.0026 4.08068C17.1192 3.97065 17.2108 3.8369 17.2713 3.68846L17.294 3.62793L17.5199 2.96628ZM20.2923 2C20.3447 2 20.3961 2.01471 20.4406 2.04245C20.4851 2.07019 20.5209 2.10986 20.5439 2.15694L20.5574 2.18972L20.6555 2.47725L20.9433 2.57534C20.9958 2.59319 21.0419 2.62623 21.0756 2.67029C21.1094 2.71434 21.1293 2.76742 21.1328 2.8228C21.1364 2.87817 21.1234 2.93336 21.0955 2.98135C21.0677 3.02934 21.0262 3.06799 20.9764 3.09238L20.9433 3.10584L20.6558 3.20392L20.5577 3.49173C20.5398 3.54425 20.5067 3.59029 20.4627 3.624C20.4186 3.65771 20.3655 3.67758 20.3101 3.6811C20.2547 3.68461 20.1996 3.6716 20.1516 3.64373C20.1036 3.61585 20.065 3.57436 20.0406 3.52452L20.0272 3.49173L19.9291 3.2042L19.6413 3.10612C19.5887 3.08827 19.5427 3.05522 19.5089 3.01117C19.4752 2.96711 19.4553 2.91403 19.4518 2.85866C19.4482 2.80328 19.4612 2.7481 19.4891 2.7001C19.5169 2.65211 19.5584 2.61347 19.6082 2.58907L19.6413 2.57562L19.9288 2.47753L20.0269 2.18972C20.0458 2.13436 20.0815 2.08629 20.1291 2.05226C20.1767 2.01824 20.2338 1.99996 20.2923 2Z" fill="#7C7C7C"/>
<path d="M4.5217 19.0133C6.55801 19.432 9.76193 20 12.1591 20C14.5563 20 17.7602 19.432 19.7965 19.0133C20.9105 18.7842 21.6093 17.6992 21.3965 16.582L20.6392 12.6061C20.484 11.791 19.6685 11.2773 18.8613 11.469C17.0838 11.8912 14.1086 12.52 12.1591 12.52C10.2096 12.52 7.23443 11.8912 5.45696 11.469C4.64969 11.2773 3.83423 11.791 3.67898 12.6061L2.92166 16.582C2.70887 17.6992 3.40775 18.7842 4.5217 19.0133Z" stroke="#7C7C7C" stroke-width="1.5"/>
<path d="M12.1582 5.90601C13.0337 5.90601 13.7974 6.38667 14.1992 7.10132L14.376 7.41479L14.7295 7.35327C14.8186 7.33797 14.9117 7.33082 15.0078 7.33081C15.7341 7.33081 16.3506 7.80663 16.5596 8.46558L16.6484 8.74683L16.9355 8.80933C17.5721 8.94868 18.1115 9.34944 18.4375 9.89331C16.6768 10.3542 14.0779 10.9353 12.1582 10.9353C10.238 10.9352 7.63853 10.3542 5.87793 9.89331C6.20373 9.34931 6.74355 8.94893 7.37988 8.80933L7.66797 8.74683L7.75684 8.46558C7.96561 7.80691 8.58219 7.33097 9.30859 7.33081C9.40429 7.33081 9.49764 7.33796 9.58691 7.35327L9.94043 7.41479L10.1172 7.10132C10.5188 6.3868 11.2825 5.9061 12.1582 5.90601Z" fill="#7C7C7C" stroke="#7C7C7C" stroke-width="1.01887"/>
<path d="M10.1211 17.7197V15.779C10.1211 15.5216 10.2233 15.2748 10.4053 15.0928C10.5873 14.9109 10.8341 14.8086 11.0914 14.8086C11.3488 14.8086 11.5956 14.9109 11.7776 15.0928C11.9596 15.2748 12.0618 15.5216 12.0618 15.779V17.7197M10.1211 16.7493H12.0618M13.5173 14.8086V17.7197" stroke="#7C7C7C" stroke-linecap="round" stroke-linejoin="round"/>
</svg>
