<svg width="24" height="24" viewBox="0 0 24 24" fill="none" xmlns="http://www.w3.org/2000/svg">
<mask id="path-1-inside-1_3158_7093" fill="white">
<path d="M10.8291 2.37836C11.5281 1.87353 12.4719 1.87353 13.1709 2.37836L20.1709 7.43403C20.6915 7.81002 21 8.41296 21 9.05512V20.0327C21 21.1372 20.1045 22.0327 19 22.0327H14.5V16.0004C14.5 15.4482 14.0523 15.0004 13.5 15.0004H10.5C9.94772 15.0004 9.5 15.4482 9.5 16.0004V22.0327H5C3.89545 22.0327 3.00004 21.1372 3 20.0327V9.05512C3.00003 8.41296 3.30852 7.81002 3.8291 7.43403L10.8291 2.37836Z"/>
</mask>
<path d="M10.8291 2.37836L9.95088 1.16233L9.95085 1.16235L10.8291 2.37836ZM13.1709 2.37836L14.0491 1.16235L14.0491 1.16233L13.1709 2.37836ZM20.1709 7.43403L21.0492 6.21802L21.0491 6.21802L20.1709 7.43403ZM21 9.05512L22.5 9.05512L22.5 9.05505L21 9.05512ZM21 20.0327L22.5 20.0327V20.0327H21ZM14.5 22.0327H13C13 22.8611 13.6716 23.5327 14.5 23.5327V22.0327ZM9.5 22.0327V23.5327C10.3284 23.5327 11 22.8611 11 22.0327H9.5ZM3 20.0327L1.5 20.0327L1.5 20.0327L3 20.0327ZM3 9.05512L1.5 9.05505V9.05512H3ZM3.8291 7.43403L2.95085 6.21802L2.95085 6.21802L3.8291 7.43403ZM10.8291 2.37836L11.7073 3.5944C11.8821 3.46819 12.1179 3.46819 12.2927 3.5944L13.1709 2.37836L14.0491 1.16233C12.8258 0.278876 11.1742 0.278877 9.95088 1.16233L10.8291 2.37836ZM13.1709 2.37836L12.2927 3.59437L19.2927 8.65004L20.1709 7.43403L21.0491 6.21802L14.0491 1.16235L13.1709 2.37836ZM20.1709 7.43403L19.2926 8.65003C19.423 8.74421 19.5 8.89495 19.5 9.05519L21 9.05512L22.5 9.05505C22.4999 7.93097 21.9599 6.87583 21.0492 6.21802L20.1709 7.43403ZM21 9.05512H19.5V20.0327H21H22.5V9.05512H21ZM21 20.0327L19.5 20.0326C19.5 20.3088 19.2761 20.5327 19 20.5327V22.0327V23.5327C20.933 23.5327 22.4999 21.9656 22.5 20.0327L21 20.0327ZM19 22.0327V20.5327H14.5V22.0327V23.5327H19V22.0327ZM14.5 22.0327H16V16.0004H14.5H13V22.0327H14.5ZM14.5 16.0004H16C16 14.6197 14.8807 13.5004 13.5 13.5004V15.0004V16.5004C13.2239 16.5004 13 16.2766 13 16.0004H14.5ZM13.5 15.0004V13.5004H10.5V15.0004V16.5004H13.5V15.0004ZM10.5 15.0004V13.5004C9.11929 13.5004 8 14.6197 8 16.0004H9.5H11C11 16.2766 10.7761 16.5004 10.5 16.5004V15.0004ZM9.5 16.0004H8V22.0327H9.5H11V16.0004H9.5ZM9.5 22.0327V20.5327H5V22.0327V23.5327H9.5V22.0327ZM5 22.0327V20.5327C4.72393 20.5327 4.50001 20.3088 4.5 20.0326L3 20.0327L1.5 20.0327C1.50006 21.9656 3.06698 23.5327 5 23.5327V22.0327ZM3 20.0327H4.5V9.05512H3H1.5V20.0327H3ZM3 9.05512L4.5 9.05519C4.50001 8.89495 4.57697 8.74421 4.70736 8.65003L3.8291 7.43403L2.95085 6.21802C2.04007 6.87583 1.50005 7.93097 1.5 9.05505L3 9.05512ZM3.8291 7.43403L4.70735 8.65004L11.7073 3.59437L10.8291 2.37836L9.95085 1.16235L2.95085 6.21802L3.8291 7.43403Z" fill="#7C7C7C" mask="url(#path-1-inside-1_3158_7093)"/>
</svg>
