<svg width="24" height="24" viewBox="0 0 24 24" fill="none" xmlns="http://www.w3.org/2000/svg">
<mask id="mask0_3158_7159" style="mask-type:alpha" maskUnits="userSpaceOnUse" x="0" y="0" width="24" height="24">
<rect width="24" height="24" fill="#D9D9D9"/>
</mask>
<g mask="url(#mask0_3158_7159)">
<path d="M12 10.75C12.4051 10.75 12.771 10.847 13.1104 11.041L13.1113 11.042C13.4879 11.2574 13.8177 11.5337 14.1025 11.874L14.1074 11.8799L14.1133 11.8857C14.5483 12.383 14.931 12.9158 15.2617 13.4844V13.4854C15.6427 14.1398 16.0893 14.7527 16.5996 15.3232L16.6055 15.3301C17.1721 15.9471 17.7483 16.5643 18.333 17.1816C18.784 17.6581 18.9999 18.202 19 18.8496C19 19.3901 18.8337 19.835 18.499 20.2197C18.1818 20.5843 17.8154 20.75 17.3506 20.75C16.4925 20.75 15.6424 20.6781 14.8008 20.5352C13.8759 20.3781 12.9418 20.2998 12 20.2998C11.0584 20.2998 10.1249 20.3781 9.2002 20.5352C8.35853 20.6781 7.5085 20.75 6.65039 20.75C6.18556 20.75 5.81917 20.5843 5.50195 20.2197C5.1673 19.835 5 19.3901 5 18.8496C5.00009 18.202 5.21693 17.6581 5.66797 17.1816C6.25269 16.5643 6.82891 15.9471 7.39551 15.3301L7.39453 15.3291C7.84845 14.8377 8.25129 14.3126 8.59961 13.752L8.74512 13.5088C9.07232 12.9481 9.45747 12.4194 9.90137 11.9229H9.90234L9.90918 11.9141C10.2064 11.571 10.5456 11.2839 10.9277 11.0508C11.2589 10.8489 11.6114 10.7501 12 10.75ZM4.5 7.75C4.93628 7.75 5.27658 7.89207 5.56738 8.18262C5.65399 8.26915 5.7706 8.46383 5.8623 8.80762C5.95068 9.13896 6 9.55011 6 10C6 10.4537 5.95027 11.0062 5.85254 11.4854C5.80371 11.7247 5.74591 11.9295 5.68457 12.0869C5.65417 12.165 5.62563 12.224 5.60156 12.2656C5.58281 12.298 5.5704 12.3128 5.56738 12.3164C5.2767 12.6073 4.93702 12.75 4.50098 12.75C4.06469 12.75 3.7244 12.6079 3.43359 12.3174C3.43728 12.3211 3.42411 12.3082 3.39941 12.2656C3.37531 12.224 3.34687 12.1649 3.31641 12.0869C3.25501 11.9297 3.19738 11.7253 3.14844 11.4863C3.05038 11.0074 3 10.4549 3 10.001C3 9.55085 3.04927 9.13979 3.1377 8.80859C3.22944 8.4651 3.34675 8.27054 3.43359 8.18359C3.72428 7.89269 4.06396 7.75 4.5 7.75ZM19.5 7.75C19.9363 7.75 20.2766 7.89207 20.5674 8.18262C20.654 8.26915 20.7706 8.46383 20.8623 8.80762C20.9507 9.13896 21 9.55011 21 10C21 10.4537 20.9503 11.0062 20.8525 11.4854C20.8037 11.7247 20.7459 11.9295 20.6846 12.0869C20.6542 12.165 20.6256 12.224 20.6016 12.2656C20.5828 12.298 20.5704 12.3128 20.5674 12.3164C20.2767 12.6073 19.937 12.75 19.501 12.75C19.0647 12.75 18.7244 12.6079 18.4336 12.3174C18.4373 12.3211 18.4241 12.3082 18.3994 12.2656C18.3753 12.224 18.3469 12.1649 18.3164 12.0869C18.255 11.9297 18.1974 11.7253 18.1484 11.4863C18.0504 11.0074 18 10.4549 18 10.001C18 9.55085 18.0493 9.13979 18.1377 8.80859C18.2294 8.4651 18.3468 8.27054 18.4336 8.18359C18.7243 7.89269 19.064 7.75 19.5 7.75ZM9 2.75C9.43628 2.75 9.77658 2.89207 10.0674 3.18262C10.154 3.26915 10.2706 3.46383 10.3623 3.80762C10.4507 4.13896 10.5 4.55011 10.5 5C10.5 5.45365 10.4503 6.00615 10.3525 6.48535C10.3037 6.72473 10.2459 6.92946 10.1846 7.08691C10.1542 7.16496 10.1256 7.22402 10.1016 7.26562C10.0828 7.29799 10.0704 7.31278 10.0674 7.31641C9.7767 7.60731 9.43702 7.75 9.00098 7.75C8.56469 7.75 8.2244 7.60793 7.93359 7.31738C7.93733 7.32112 7.92413 7.30826 7.89941 7.26562C7.8753 7.22402 7.84687 7.16494 7.81641 7.08691C7.75498 6.92952 7.69739 6.72458 7.64844 6.48535C7.55042 6.00621 7.5 5.45384 7.5 5C7.5 4.54974 7.54925 4.13856 7.6377 3.80762C7.72938 3.46468 7.84666 3.27064 7.93359 3.18359C8.22428 2.89269 8.56396 2.75 9 2.75ZM15 2.75C15.4363 2.75 15.7766 2.89207 16.0674 3.18262C16.154 3.26915 16.2706 3.46383 16.3623 3.80762C16.4507 4.13896 16.5 4.55011 16.5 5C16.5 5.45365 16.4503 6.00615 16.3525 6.48535C16.3037 6.72473 16.2459 6.92946 16.1846 7.08691C16.1542 7.16496 16.1256 7.22402 16.1016 7.26562C16.0828 7.29799 16.0704 7.31278 16.0674 7.31641C15.7767 7.60731 15.437 7.75 15.001 7.75C14.5647 7.75 14.2244 7.60793 13.9336 7.31738C13.9373 7.32108 13.9241 7.30819 13.8994 7.26562C13.8753 7.22404 13.8469 7.16489 13.8164 7.08691C13.755 6.92967 13.6974 6.72533 13.6484 6.48633C13.5504 6.00739 13.5 5.45492 13.5 5.00098C13.5 4.55085 13.5493 4.13979 13.6377 3.80859C13.7294 3.4651 13.8468 3.27054 13.9336 3.18359C14.2243 2.89269 14.564 2.75 15 2.75Z" fill="#BE1A21" stroke="#BE1A21" stroke-width="1.5"/>
</g>
</svg>
