<svg width="24" height="24" viewBox="0 0 24 24" fill="none" xmlns="http://www.w3.org/2000/svg">
<mask id="path-1-inside-1_3158_7091" fill="white">
<path d="M18 2C19.1046 2 20 2.89543 20 4V20C20 21.1046 19.1046 22 18 22H6C4.89543 22 4 21.1046 4 20V4C4 2.89543 4.89543 2 6 2H10V4C10 4.55228 10.4477 5 11 5H13C13.5523 5 14 4.55228 14 4V2H18Z"/>
</mask>
<path d="M4 4L2.5 4V4H4ZM10 2H11.5V0.5H10V2ZM14 2V0.5H12.5V2H14ZM18 2V3.5C18.2761 3.5 18.5 3.72386 18.5 4H20H21.5C21.5 2.067 19.933 0.5 18 0.5V2ZM20 4H18.5V20H20H21.5V4H20ZM20 20H18.5C18.5 20.2761 18.2761 20.5 18 20.5V22V23.5C19.933 23.5 21.5 21.933 21.5 20H20ZM18 22V20.5H6V22V23.5H18V22ZM6 22V20.5C5.72386 20.5 5.5 20.2761 5.5 20H4H2.5C2.5 21.933 4.067 23.5 6 23.5V22ZM4 20H5.5V4H4H2.5V20H4ZM4 4L5.5 4C5.5 3.72386 5.72386 3.5 6 3.5V2V0.5C4.067 0.5 2.5 2.067 2.5 4L4 4ZM6 2V3.5H10V2V0.5H6V2ZM10 2H8.5V4H10H11.5V2H10ZM10 4H8.5C8.5 5.38071 9.61929 6.5 11 6.5V5V3.5C11.2761 3.5 11.5 3.72386 11.5 4H10ZM11 5V6.5H13V5V3.5H11V5ZM13 5V6.5C14.3807 6.5 15.5 5.38071 15.5 4H14H12.5C12.5 3.72386 12.7239 3.5 13 3.5V5ZM14 4H15.5V2H14H12.5V4H14ZM14 2V3.5H18V2V0.5H14V2Z" fill="#7C7C7C" mask="url(#path-1-inside-1_3158_7091)"/>
<rect x="7" y="9" width="5" height="1.5" rx="0.75" fill="#7C7C7C"/>
<rect x="7" y="12.5" width="10" height="1.5" rx="0.75" fill="#7C7C7C"/>
<rect x="7" y="16" width="10" height="1.5" rx="0.75" fill="#7C7C7C"/>
</svg>
