<svg width="24" height="24" viewBox="0 0 24 24" fill="none" xmlns="http://www.w3.org/2000/svg">
<path d="M10 4C10 4.55228 10.4477 5 11 5H13C13.5523 5 14 4.55228 14 4V2H18C19.1046 2 20 2.89543 20 4V20C20 21.1046 19.1046 22 18 22H6C4.89543 22 4 21.1046 4 20V4C4 2.89543 4.89543 2 6 2H10V4ZM7.75 16C7.33579 16 7 16.3358 7 16.75C7 17.1642 7.33579 17.5 7.75 17.5H16.25C16.6642 17.5 17 17.1642 17 16.75C17 16.3358 16.6642 16 16.25 16H7.75ZM7.75 12.5C7.33579 12.5 7 12.8358 7 13.25C7 13.6642 7.33579 14 7.75 14H16.25C16.6642 14 17 13.6642 17 13.25C17 12.8358 16.6642 12.5 16.25 12.5H7.75ZM7.75 9C7.33579 9 7 9.33579 7 9.75C7 10.1642 7.33579 10.5 7.75 10.5H11.25C11.6642 10.5 12 10.1642 12 9.75C12 9.33579 11.6642 9 11.25 9H7.75Z" fill="#BE1A21"/>
</svg>
