<svg viewBox="0 0 64 64" fill="none" xmlns="http://www.w3.org/2000/svg">
<g clip-path="url(#clip0_2666_5205)">
<path d="M61 32C61 48.0163 48.0163 61 32 61C15.9837 61 3 48.0163 3 32C3 15.9837 15.9837 3 32 3C48.0163 3 61 15.9837 61 32ZM8.8 32C8.8 44.813 19.187 55.2 32 55.2C44.813 55.2 55.2 44.813 55.2 32C55.2 19.187 44.813 8.8 32 8.8C19.187 8.8 8.8 19.187 8.8 32Z" fill="#D9D9D9"/>
<path d="M58.1 32C59.7016 32 61.015 33.3016 60.8551 34.8952C60.5727 37.7103 59.8792 40.4743 58.7925 43.0978C57.3351 46.6163 55.199 49.8132 52.5061 52.5061C49.8132 55.199 46.6163 57.3351 43.0978 58.7925C40.4743 59.8792 37.7103 60.5727 34.8952 60.8551C33.3016 61.015 32 59.7016 32 58.1C32 56.4984 33.3033 55.2187 34.8925 55.019C36.9453 54.761 38.9588 54.2291 40.8783 53.434C43.693 52.2681 46.2506 50.5592 48.4049 48.4049C50.5592 46.2506 52.2681 43.693 53.434 40.8783C54.2291 38.9588 54.761 36.9453 55.019 34.8925C55.2187 33.3033 56.4984 32 58.1 32Z" fill="#F1A3A6"/>
<path d="M50.4555 50.456C51.588 51.5885 51.5964 53.4375 50.3564 54.4513C48.1661 56.2422 45.7213 57.7063 43.0978 58.793C39.5794 60.2504 35.8083 61.0005 32 61.0005C28.1917 61.0005 24.4206 60.2504 20.9022 58.793C18.2787 57.7063 15.8339 56.2422 13.6436 54.4513C12.4036 53.4375 12.412 51.5885 13.5445 50.456C14.677 49.3234 16.5035 49.3402 17.7684 50.3226C19.4024 51.5918 21.2023 52.6394 23.1217 53.4345C25.9365 54.6004 28.9533 55.2005 32 55.2005C35.0467 55.2005 38.0635 54.6004 40.8783 53.4345C42.7977 52.6394 44.5976 51.5918 46.2316 50.3226C47.4965 49.3402 49.323 49.3234 50.4555 50.456Z" fill="#E5696E"/>
<path d="M32 58.1C32 59.7016 30.6984 61.015 29.1048 60.8551C26.2897 60.5727 23.5257 59.8792 20.9022 58.7925C17.3837 57.3351 14.1868 55.199 11.4939 52.5061C8.801 49.8132 6.66488 46.6163 5.20749 43.0978C4.1208 40.4743 3.42734 37.7103 3.14488 34.8952C2.98498 33.3016 4.29837 32 5.9 32C7.50163 32 8.78133 33.3033 8.98101 34.8925C9.23897 36.9453 9.77092 38.9588 10.566 40.8783C11.7319 43.693 13.4408 46.2506 15.5951 48.4049C17.7494 50.5592 20.307 52.2681 23.1217 53.434C25.0412 54.2291 27.0547 54.761 29.1075 55.019C30.6967 55.2187 32 56.4984 32 58.1Z" fill="#BE1A21"/>
</g>
<defs>
<clipPath id="clip0_2666_5205">
<rect width="64" height="64" fill="white"/>
</clipPath>
</defs>
</svg>
